<svg xmlns="http://www.w3.org/2000/svg" viewBox="0 0 36.93 31.94"><defs><style>.cls-1{isolation:isolate;}.cls-2{fill:#a6882e;}</style></defs><g id="Layer_2" data-name="Layer 2"><g id="Layer_1-2" data-name="Layer 1"><g id="_" data-name=" " class="cls-1"><g class="cls-1"><path class="cls-2" d="M6.59,31.94A7.35,7.35,0,0,1,1.7,30.5a5,5,0,0,1-1.7-4,5.87,5.87,0,0,1,.06-.77c.05-.3.09-.56.13-.77a9.91,9.91,0,0,1,1.89-4.19,17.65,17.65,0,0,1,3.65-3.62,22.19,22.19,0,0,1,4.54-2.62,13.79,13.79,0,0,1,4.64-1.15,6.91,6.91,0,0,1-.09-.8c0-.32,0-.7,0-1.12a7.91,7.91,0,0,1,1.16-3.94A14.28,14.28,0,0,1,19,3.81a16.79,16.79,0,0,1,4.38-2.75,12.34,12.34,0,0,1,5-1.06H29a2.68,2.68,0,0,1,.61.06,7,7,0,0,1,2.95,1,2.48,2.48,0,0,1,1.28,2.2,4,4,0,0,1-.13.84A8.27,8.27,0,0,1,31.2,7.81a11.68,11.68,0,0,1-4.45,2.43l-.45.1-.32,0c-.17,0-.25,0-.25-.13,0-.26.27-.49.83-.7a11.92,11.92,0,0,0,3.52-2.47A7.2,7.2,0,0,0,32,3.78a2.24,2.24,0,0,0-.42-1.67c-.36-.51-1.2-.77-2.52-.77A8.7,8.7,0,0,0,25.28,2.4a19.38,19.38,0,0,0-4.35,3.1,13.23,13.23,0,0,0-2.43,3,27.93,27.93,0,0,0-1.92,3.78.64.64,0,0,1-.07.19.62.62,0,0,0-.06.26,1.2,1.2,0,0,0-.13.57,5.25,5.25,0,0,1,3.07.71c.47.25.66.42.58.51q-.2.57-1.47.57A5.63,5.63,0,0,1,16,14.66a1.64,1.64,0,0,1-1-1.09,11.88,11.88,0,0,0-5.16,2.37,18.34,18.34,0,0,0-4.25,4.54,13.83,13.83,0,0,0-2.18,5.31,9,9,0,0,0-.19,1.79,3.62,3.62,0,0,0,.86,2.5,4.18,4.18,0,0,0,3.17,1,10,10,0,0,0,4.07-.93,19.45,19.45,0,0,0,4-2.43,20,20,0,0,0,3.39-3.36,14.42,14.42,0,0,0,2.17-3.65h-.19l-2.05-.51-3.84-.7c-.85.38-1.56.68-2.14.89a4.73,4.73,0,0,1-1.7.32c-.76,0-1.15-.17-1.15-.51s.27-.67.8-1a3.73,3.73,0,0,1,1.95-.48h.87a3,3,0,0,1,.86.13l1.28-1a14.74,14.74,0,0,1,2.69-1.28,8.42,8.42,0,0,1,2.88-.52,3.67,3.67,0,0,1,2.27.71,2,2,0,0,1,.74,1.6,4.24,4.24,0,0,1-.45,1.92h-.19a3.8,3.8,0,0,0,.7.06H25a15.24,15.24,0,0,0,4.26-.64A9.73,9.73,0,0,0,33,17.76a4.16,4.16,0,0,0,1.54-3.3,3.55,3.55,0,0,0-.23-1.15,1.25,1.25,0,0,0-.8-.83,2.31,2.31,0,0,1,.77-.13,2.67,2.67,0,0,1,1.89.77,2.49,2.49,0,0,1,.8,1.86,4.77,4.77,0,0,1-1.57,3.71,9.17,9.17,0,0,1-3.71,2,14.35,14.35,0,0,1-3.94.61l-2.11,0a21.32,21.32,0,0,1-2.37-.22l-.45.7a19.29,19.29,0,0,1-2.72,3.3,29,29,0,0,1-4,3.32,23.45,23.45,0,0,1-4.67,2.56A12.48,12.48,0,0,1,6.59,31.94ZM20.93,20h.13l.25-.9a1.74,1.74,0,0,0,.07-.51,1.61,1.61,0,0,0-.32-1,1.39,1.39,0,0,0-1.16-.42h-.38a1,1,0,0,0-.38.07,4.59,4.59,0,0,0-1,.28,12.47,12.47,0,0,0-1.21.55l-.71.45-.35.19a1.51,1.51,0,0,0-.35.25h-.13l1.47.32a11.05,11.05,0,0,1,1.15.2,11.67,11.67,0,0,0,1.16.19Z"/></g></g></g></g></svg>