<svg xmlns="http://www.w3.org/2000/svg" viewBox="0 0 427.44 298.08"><defs><style>.cls-1{isolation:isolate;}.cls-2{fill:#a6882e;}</style></defs><g id="Layer_2" data-name="Layer 2"><g id="Layer_1-2" data-name="Layer 1"><g id="Mr_Mrs" data-name="Mr Mrs" class="cls-1"><g class="cls-1"><path class="cls-2" d="M173.81,45.11q6-5.59,10.14-8.78A59.55,59.55,0,0,1,192,31.07h6.63a38.9,38.9,0,0,0-7.41,3.25,86,86,0,0,0-8.58,5.39,69.24,69.24,0,0,0-7.8,6.44,109.21,109.21,0,0,0-12.61,16.18q-5.72,8.91-11.18,18.34T139.49,99.12a107.93,107.93,0,0,1-13.78,16.58,62,62,0,0,1-22.43,13.91,83.3,83.3,0,0,1-28.53,4.68,64.17,64.17,0,0,1-23-4,36.83,36.83,0,0,1-16.58-12.09Q29,110.11,29,97.89a31.55,31.55,0,0,1,4-15.66A39.91,39.91,0,0,1,44.33,69.62a55.52,55.52,0,0,1,17.09-8.39,73.28,73.28,0,0,1,21.39-3q18.59,0,32.11,5.92t20.86,16.76q7.35,10.86,7.35,25.68a42.14,42.14,0,0,1-5.2,20.73,49.63,49.63,0,0,1-14.76,16.32,73,73,0,0,1-22.49,10.66,101.8,101.8,0,0,1-28.53,3.77,85.17,85.17,0,0,1-28.47-4.62,72.59,72.59,0,0,1-22.95-12.87A59.69,59.69,0,0,1,5.46,121.36,52.89,52.89,0,0,1,0,97.5,49.4,49.4,0,0,1,5.85,73.91,61.91,61.91,0,0,1,22.1,54.6a79.16,79.16,0,0,1,24-13,90,90,0,0,1,29.38-4.68q15.33,0,26.85,4.55t18,12.55a28.67,28.67,0,0,1,6.5,18.65A31.21,31.21,0,0,1,123,88a39.73,39.73,0,0,1-10.86,12.41,53.12,53.12,0,0,1-16.18,8.32,64.72,64.72,0,0,1-20,3q-11.83,0-18.53-3.77T50.7,97.63A14,14,0,0,1,54.4,88a23.9,23.9,0,0,1,10.34-6.43A47.12,47.12,0,0,1,80.08,79.3q11.17,0,18.07,5.33l-.91,1Q91,80.6,80.08,80.6a45.44,45.44,0,0,0-14.63,2.15,23.52,23.52,0,0,0-9.88,6A12.64,12.64,0,0,0,52,97.63q0,6,6.43,9.36t17.49,3.38a63.92,63.92,0,0,0,19.43-2.86,51.73,51.73,0,0,0,15.8-8,38.67,38.67,0,0,0,10.59-12,29.94,29.94,0,0,0,3.84-14.82,27.61,27.61,0,0,0-6.31-18q-6.3-7.74-17.55-12.09T75.53,38.22a88.89,88.89,0,0,0-28.86,4.61A77.54,77.54,0,0,0,23,55.58,61.51,61.51,0,0,0,7.08,74.42,48,48,0,0,0,1.3,97.5a51.38,51.38,0,0,0,5.39,23.27,59.18,59.18,0,0,0,15.08,18.92,71.3,71.3,0,0,0,22.56,12.6,83.71,83.71,0,0,0,27.82,4.49,100.8,100.8,0,0,0,28-3.7,71.19,71.19,0,0,0,22.1-10.41,49,49,0,0,0,14.43-15.85,40.59,40.59,0,0,0,5.14-20.22q0-14.56-7.22-25.09T114.2,65.26Q101,59.55,82.81,59.54A72.77,72.77,0,0,0,61.94,62.4a54,54,0,0,0-16.7,8.13A38.63,38.63,0,0,0,34.19,82.75a30.41,30.41,0,0,0-3.9,15.14q0,9.89,5.46,16.51a32.83,32.83,0,0,0,15,9.94,65.62,65.62,0,0,0,21.71,3.32,56.9,56.9,0,0,0,22.68-4.55A82.63,82.63,0,0,0,114.92,111a149.93,149.93,0,0,0,17.35-16.7q8.13-9.16,15.34-18.46t13.72-17.42A102.22,102.22,0,0,1,173.81,45.11ZM98.54,71Q84.37,71,75.46,66.5T62.33,54.92a28.42,28.42,0,0,1-4.22-14.75A30.1,30.1,0,0,1,62,25.61,41.8,41.8,0,0,1,73.38,12.67,58.56,58.56,0,0,1,91.84,3.45a83.54,83.54,0,0,1,25-3.45A55.79,55.79,0,0,1,132.6,2.28a100.65,100.65,0,0,1,15.28,5.84q7.47,3.59,14.29,7.55t12.61,7.47q5.79,3.51,10.27,5.72a17.75,17.75,0,0,0,7.35,2.21V32.5q-3.65.14-9.36-2.92T170,22q-7.28-4.5-15.8-9a116.85,116.85,0,0,0-17.68-7.54A58.12,58.12,0,0,0,118,2.47,85.5,85.5,0,0,0,95.22,5.4,62.75,62.75,0,0,0,76.7,13.65,41.46,41.46,0,0,0,64.35,26.07a28.28,28.28,0,0,0-4.42,15.27,24.1,24.1,0,0,0,4.81,14.95,31.38,31.38,0,0,0,13.58,9.95,53.74,53.74,0,0,0,20.35,3.57,43.21,43.21,0,0,0,17.48-3.44,32.57,32.57,0,0,0,12.55-9.24,19.85,19.85,0,0,0,4.68-12.8A16.15,16.15,0,0,0,131,35.55,13.49,13.49,0,0,0,124,30l.78-1A16.35,16.35,0,0,1,132.21,35a16.57,16.57,0,0,1,2.6,9.29A21.1,21.1,0,0,1,130,57.79a33.16,33.16,0,0,1-13.07,9.62A45.84,45.84,0,0,1,98.54,71Zm162-37.83a66.62,66.62,0,0,0-19.44,4.94,136.33,136.33,0,0,0-20.6,10.66A209.79,209.79,0,0,0,200.2,63.18q-9.88,7.93-18.46,16.25a216.51,216.51,0,0,0-15.08,16.06,109,109,0,0,0-10.14,13.84q-3.65,6.12-3.64,9.62c0,.17,0,.26.13.26.26,0,.8-.56,1.62-1.69s1.74-2.45,2.73-4,1.93-2.92,2.8-4.22a53.19,53.19,0,0,0,6.63-14.5q2.21-7.72,3.83-15.92t4-16.45a72.45,72.45,0,0,1,6.82-16.12,57.23,57.23,0,0,1,12.42-14.75l1.56.39A23.25,23.25,0,0,0,188,40.62a92.44,92.44,0,0,0-5.91,14q-2.73,8.06-5.4,17T171,89.5a137.44,137.44,0,0,1-6.89,16.65,52.68,52.68,0,0,1-8.9,13.06c-2.17,2.17-3.55,3.25-4.16,3.25a.8.8,0,0,1-.91-.91q0-3.9,3.7-10.47A107.43,107.43,0,0,1,164.19,96.4a211.47,211.47,0,0,1,15.4-16.78q8.78-8.64,18.92-16.83a214.56,214.56,0,0,1,20.8-14.88,136.58,136.58,0,0,1,21.19-11,68,68,0,0,1,20-5.07q14.69-1.56,21.64-2.73t7-3.64c0-.43-.46-.85-1.37-1.23a9.16,9.16,0,0,0-3.57-.59A43.4,43.4,0,0,0,265.91,28,97.88,97.88,0,0,0,247.52,39.2,208.54,208.54,0,0,0,230.1,54.08Q221.78,62,214.5,69.42q-7,7.55-13.72,16.06a170.47,170.47,0,0,0-12,17.22,102.88,102.88,0,0,0-8.38,17,44.59,44.59,0,0,0-3.12,15.6q0,6.76,2.92,10.72a9.4,9.4,0,0,0,8,4,14.3,14.3,0,0,0,9.23-3.38l.39.91a13.78,13.78,0,0,1-9.75,3.77,13.3,13.3,0,0,1-10.73-5.13q-4.22-5.15-4.22-13.07a38.68,38.68,0,0,1,3.25-14.75,97.22,97.22,0,0,1,8.45-15.87A185,185,0,0,1,196.1,87q6-7.49,11.77-13.66t9.88-10.2q6.63-6.24,14.56-13.26t16.57-13.33A98.57,98.57,0,0,1,266.3,26.33a41.28,41.28,0,0,1,17.1-4,24.22,24.22,0,0,1,6.69.78c1.78.52,2.67,1.26,2.67,2.21,0,1.3-1,2.38-2.86,3.25s-5.2,1.65-9.88,2.34S268.84,32.37,260.52,33.15Z"/><path class="cls-2" d="M212.55,124.8q2.73,0,7.54-2.92a88.58,88.58,0,0,0,10.4-7.61A107.1,107.1,0,0,0,241,104.13l1.56-1.69h1.3l-1.17,1.3a100,100,0,0,1-11.25,11.05,81.75,81.75,0,0,1-10.92,7.87q-5,2.93-8.12,2.92a6.16,6.16,0,0,1-3.38-1.1,4,4,0,0,1-1.69-3.58,12.39,12.39,0,0,1,2.6-7.08,57.18,57.18,0,0,1,6.5-7.61q3.9-3.9,7.8-7.54a83.7,83.7,0,0,0,6.5-6.69q2.59-3.06,2.6-5.27c0-1.56-1-2.34-2.86-2.34a11.36,11.36,0,0,0-3,.46c-1.13.3-2.39.71-3.77,1.23l1-1.43c1.12-.43,2.23-.82,3.31-1.17a11.47,11.47,0,0,1,3.45-.52,9.62,9.62,0,0,1,5.26,1.3,4.71,4.71,0,0,1,2,4.29,11.64,11.64,0,0,1-2.93,7.28A47.14,47.14,0,0,1,228.6,103q-4.35,3.51-8.71,6.83a59,59,0,0,0-7.28,6.43q-2.93,3.12-2.92,6C209.69,123.93,210.64,124.8,212.55,124.8Zm-3.38-22.36h-1.3l1.56-1.69q12-13.12,19.3-21.58t9.69-11.83H244A128.64,128.64,0,0,0,231.07,79q-7.73,7.72-20.21,21.64Z"/><path class="cls-2" d="M351.52,53.69q-50.83,20.81-50.83,51.09a35.36,35.36,0,0,0,3.64,15.93,40.65,40.65,0,0,0,10.07,12.87,48,48,0,0,0,15,8.64A54,54,0,0,0,348,145.34a64.85,64.85,0,0,0,20.67-3.25,57.62,57.62,0,0,0,17.22-9,45,45,0,0,0,11.77-13.26A31.22,31.22,0,0,0,402,104,29.42,29.42,0,0,0,397,87.1a32.9,32.9,0,0,0-13.85-11.37,48.83,48.83,0,0,0-20.6-4.1,53.3,53.3,0,0,0-16.38,2.47,46.17,46.17,0,0,0-13.52,6.82,34.75,34.75,0,0,0-9.23,10,23.21,23.21,0,0,0-3.38,12.15,19.08,19.08,0,0,0,4.16,12.09,27.28,27.28,0,0,0,11.37,8.32,43.09,43.09,0,0,0,16.58,3,39.69,39.69,0,0,0,15.08-2.66,24.59,24.59,0,0,0,10.2-7.35,16.9,16.9,0,0,0,3.71-10.79,15.18,15.18,0,0,0-5.72-12.35q-5.73-4.68-15.21-4.68-8.72,0-14.43,3.51t-5.72,9a9,9,0,0,0,1.49,5.27,6.87,6.87,0,0,0,4.1,2.79l-1,.78a7.81,7.81,0,0,1-4.23-3.06,9.24,9.24,0,0,1-1.62-5.52q0-6.11,6-10.07t15.15-4q10.14,0,16.38,5.07a16.27,16.27,0,0,1,6.24,13.26,18.23,18.23,0,0,1-3.9,11.51A25.55,25.55,0,0,1,367.9,125a42.44,42.44,0,0,1-16,2.79,43.76,43.76,0,0,1-17.16-3.18A28,28,0,0,1,323,115.83a20.55,20.55,0,0,1-4.22-12.74,25,25,0,0,1,3.38-12.67A35.17,35.17,0,0,1,331.43,80a44.88,44.88,0,0,1,13.78-7.08,54.28,54.28,0,0,1,16.84-2.54,50.5,50.5,0,0,1,21.38,4.29A35.56,35.56,0,0,1,398,86.38a29.2,29.2,0,0,1,5.27,17.23,34.1,34.1,0,0,1-4.68,17.16,49,49,0,0,1-12.87,14.5,65.85,65.85,0,0,1-18.66,9.94,70.26,70.26,0,0,1-43.22.46,57.78,57.78,0,0,1-17.16-8.84,42.26,42.26,0,0,1-11.57-13.2,32.79,32.79,0,0,1-4.16-16.12q0-15.6,15.21-29.57t44.33-25.42q15.21-5.85,24.37-9.49t13.85-5.85a24.12,24.12,0,0,0,6.24-3.77A4.71,4.71,0,0,0,396.5,30a3.21,3.21,0,0,0-1.11-2.53,4.21,4.21,0,0,0-2.92-1q-4.56,0-9.75,4.23a53.8,53.8,0,0,0-10.14,11.37,103,103,0,0,0-9,16,110.68,110.68,0,0,0-6.44,18,69,69,0,0,0-2.4,17.48,38.06,38.06,0,0,0,4,17.61,30.66,30.66,0,0,0,10.92,12.16,29,29,0,0,0,15.93,4.42,32.79,32.79,0,0,0,15-3.58,41.71,41.71,0,0,0,12.55-9.75,46.88,46.88,0,0,0,8.58-14.17,45.88,45.88,0,0,0,3.12-16.83q0-14.43-7.48-25.16T396.43,41.67Q383,35.74,364.78,35.75a111.94,111.94,0,0,0-28.67,3.58A101.63,101.63,0,0,0,311.22,49.4a83.66,83.66,0,0,0-19.63,15.4,67,67,0,0,0-12.87,19.57A56.92,56.92,0,0,0,274.17,107a52.06,52.06,0,0,0,5.07,22.88,55.46,55.46,0,0,0,14.23,18.33,67.69,67.69,0,0,0,21.45,12.16,79.53,79.53,0,0,0,26.72,4.35A59.48,59.48,0,0,0,355.87,163a57.48,57.48,0,0,0,12.81-4.75,24.52,24.52,0,0,0,8.45-6.63l.91.91a27.24,27.24,0,0,1-8.84,6.83A62.28,62.28,0,0,1,341.64,166a84.36,84.36,0,0,1-27.95-4.48A71.07,71.07,0,0,1,291.2,149a57.72,57.72,0,0,1-14.95-18.85,52,52,0,0,1-5.33-23.4,57.29,57.29,0,0,1,4.68-22.94A67.59,67.59,0,0,1,288.86,63.9a85.2,85.2,0,0,1,20.28-15.61,107.64,107.64,0,0,1,25.8-10.2,118.83,118.83,0,0,1,29.71-3.64q19.11,0,33.21,6T419.7,57.59q7.74,11.05,7.74,25.87a45.46,45.46,0,0,1-3.38,17.36,48.77,48.77,0,0,1-9.23,14.62,44.17,44.17,0,0,1-13.39,10,36,36,0,0,1-15.86,3.64,30.76,30.76,0,0,1-16.64-4.55,31.55,31.55,0,0,1-11.44-12.61,39.28,39.28,0,0,1-4.16-18.33,70.05,70.05,0,0,1,2.53-18.07,110.6,110.6,0,0,1,6.83-18.59,101.36,101.36,0,0,1,9.62-16.44,58.7,58.7,0,0,1,10.85-11.71q5.52-4.35,10.6-4.35,5.46,0,5.46,4.55a5.61,5.61,0,0,1-1,3.25,11.61,11.61,0,0,1-3.7,3,78.89,78.89,0,0,1-8,4Q381.29,41.6,372.77,45T351.52,53.69Z"/></g><g class="cls-1"><path class="cls-2" d="M253.82,185.11q6-5.58,10.14-8.77a59.34,59.34,0,0,1,8.06-5.27h6.63a38.9,38.9,0,0,0-7.41,3.25,84.38,84.38,0,0,0-8.58,5.4,68.12,68.12,0,0,0-7.8,6.43,110.65,110.65,0,0,0-12.61,16.19q-5.72,8.9-11.18,18.33T219.5,239.13a107.28,107.28,0,0,1-13.78,16.57,62,62,0,0,1-22.42,13.91,83.4,83.4,0,0,1-28.54,4.68,64.24,64.24,0,0,1-23-4,36.75,36.75,0,0,1-16.57-12.09Q109,250.11,109,237.89a31.65,31.65,0,0,1,4-15.66,39.91,39.91,0,0,1,11.31-12.61,55.81,55.81,0,0,1,17.1-8.39,73.17,73.17,0,0,1,21.38-3q18.6,0,32.11,5.92t20.87,16.77q7.33,10.84,7.35,25.67a42.22,42.22,0,0,1-5.21,20.74,49.56,49.56,0,0,1-14.75,16.31,73.07,73.07,0,0,1-22.49,10.66,101.93,101.93,0,0,1-28.54,3.77,85.51,85.51,0,0,1-28.47-4.61,72.82,72.82,0,0,1-22.94-12.87,59.73,59.73,0,0,1-15.28-19.24A52.89,52.89,0,0,1,80,237.5a49.43,49.43,0,0,1,5.85-23.59,61.91,61.91,0,0,1,16.25-19.31,79.5,79.5,0,0,1,24-13,90,90,0,0,1,29.38-4.68q15.35,0,26.85,4.55t18,12.55a28.63,28.63,0,0,1,6.5,18.65A31.21,31.21,0,0,1,203,228a39.82,39.82,0,0,1-10.85,12.41A53.17,53.17,0,0,1,176,248.68a64.38,64.38,0,0,1-20,3q-11.82,0-18.52-3.77t-6.7-10.27a14,14,0,0,1,3.71-9.62,23.81,23.81,0,0,1,10.33-6.43,47.16,47.16,0,0,1,15.34-2.28q11.19,0,18.07,5.33l-.91,1q-6.24-5.07-17.16-5.07a45.38,45.38,0,0,0-14.62,2.15,23.49,23.49,0,0,0-9.88,6,12.61,12.61,0,0,0-3.58,8.9q0,6,6.44,9.36t17.48,3.38a64,64,0,0,0,19.44-2.86,51.67,51.67,0,0,0,15.79-8,38.72,38.72,0,0,0,10.6-12,30,30,0,0,0,3.83-14.82,27.65,27.65,0,0,0-6.3-18q-6.31-7.74-17.55-12.09t-26.2-4.36a88.71,88.71,0,0,0-28.86,4.62A77.3,77.3,0,0,0,103,195.58,61.26,61.26,0,0,0,87.1,214.43a47.82,47.82,0,0,0-5.79,23.07,51.26,51.26,0,0,0,5.4,23.27,58.91,58.91,0,0,0,15.08,18.92,71.16,71.16,0,0,0,22.55,12.61,84,84,0,0,0,27.82,4.48,100.56,100.56,0,0,0,28-3.7,71.62,71.62,0,0,0,22.1-10.4,49.29,49.29,0,0,0,14.43-15.86,40.69,40.69,0,0,0,5.13-20.22q0-14.55-7.21-25.09t-20.41-16.25q-13.2-5.72-31.4-5.72A72.7,72.7,0,0,0,142,202.4a54.17,54.17,0,0,0-16.71,8.13,38.75,38.75,0,0,0-11,12.22,30.41,30.41,0,0,0-3.9,15.14q0,9.88,5.46,16.51a32.9,32.9,0,0,0,15,10,65.72,65.72,0,0,0,21.71,3.31,57,57,0,0,0,22.69-4.55A82.77,82.77,0,0,0,194.93,251a149.19,149.19,0,0,0,17.36-16.7q8.11-9.16,15.34-18.46t13.71-17.42A103.6,103.6,0,0,1,253.82,185.11ZM178.55,211q-14.16,0-23.07-4.48t-13.13-11.57a28.4,28.4,0,0,1-4.23-14.76,30.1,30.1,0,0,1,3.9-14.56,41.71,41.71,0,0,1,11.38-12.94,58.34,58.34,0,0,1,18.46-9.22,83.42,83.42,0,0,1,25-3.45,55.79,55.79,0,0,1,15.73,2.28,100.65,100.65,0,0,1,15.28,5.84q7.47,3.58,14.3,7.55t12.61,7.47q5.77,3.51,10.27,5.72a17.76,17.76,0,0,0,7.34,2.21v1.43q-3.63.13-9.36-2.92t-13-7.54q-7.28-4.5-15.79-9a117.28,117.28,0,0,0-17.68-7.54,58.18,58.18,0,0,0-18.53-3.06,85.42,85.42,0,0,0-22.81,2.93,62.82,62.82,0,0,0-18.53,8.25,41.7,41.7,0,0,0-12.35,12.42,28.37,28.37,0,0,0-4.42,15.27,24.14,24.14,0,0,0,4.81,14.95,31.41,31.41,0,0,0,13.59,10,53.69,53.69,0,0,0,20.34,3.57,43.26,43.26,0,0,0,17.49-3.44,32.69,32.69,0,0,0,12.54-9.23,19.91,19.91,0,0,0,4.69-12.81,16.17,16.17,0,0,0-2.41-8.77,13.48,13.48,0,0,0-7-5.53l.78-1a16.38,16.38,0,0,1,7.42,6,16.57,16.57,0,0,1,2.59,9.29A21.08,21.08,0,0,1,210,197.79,33.12,33.12,0,0,1,197,207.41,45.92,45.92,0,0,1,178.55,211Zm162-37.83a66.56,66.56,0,0,0-19.43,4.94,136.89,136.89,0,0,0-20.61,10.66,214.6,214.6,0,0,0-20.28,14.43q-9.87,7.94-18.46,16.25a218.65,218.65,0,0,0-15.08,16.06,109,109,0,0,0-10.14,13.84q-3.63,6.12-3.63,9.62c0,.18,0,.26.12.26.26,0,.8-.56,1.63-1.69s1.73-2.45,2.73-4,1.93-2.93,2.79-4.23a52.67,52.67,0,0,0,6.63-14.49q2.22-7.74,3.84-15.93t4-16.44a72.1,72.1,0,0,1,6.83-16.12,57.42,57.42,0,0,1,12.41-14.76l1.56.39a23.11,23.11,0,0,0-7.34,8.65,90.86,90.86,0,0,0-5.91,14q-2.75,8.07-5.4,17T251,229.51a141.27,141.27,0,0,1-6.89,16.64,53,53,0,0,1-8.91,13.06q-3.24,3.26-4.16,3.25a.81.81,0,0,1-.91-.91q0-3.9,3.71-10.46A106.69,106.69,0,0,1,244.2,236.4a209.93,209.93,0,0,1,15.41-16.77q8.77-8.65,18.91-16.84a215.79,215.79,0,0,1,20.8-14.88,136.67,136.67,0,0,1,21.2-11,67.93,67.93,0,0,1,20-5.07q14.7-1.56,21.65-2.73c4.63-.78,7-2,7-3.64,0-.43-.46-.85-1.37-1.23a9.18,9.18,0,0,0-3.58-.59A43.33,43.33,0,0,0,345.93,168a98,98,0,0,0-18.4,11.25,212.1,212.1,0,0,0-17.42,14.88q-8.31,7.93-15.59,15.34-7,7.54-13.72,16.06a171.61,171.61,0,0,0-12,17.22,103.36,103.36,0,0,0-8.39,17,44.59,44.59,0,0,0-3.12,15.6q0,6.76,2.93,10.73a9.4,9.4,0,0,0,8,4,14.3,14.3,0,0,0,9.23-3.38l.39.91a13.75,13.75,0,0,1-9.75,3.77,13.3,13.3,0,0,1-10.72-5.13q-4.23-5.15-4.23-13.07a38.87,38.87,0,0,1,3.25-14.75,97.91,97.91,0,0,1,8.45-15.86A185.26,185.26,0,0,1,276.12,227q6-7.48,11.76-13.65t9.89-10.21q6.63-6.24,14.55-13.26T328.9,176.6a97.68,97.68,0,0,1,17.42-10.27,41.27,41.27,0,0,1,17.09-4,24.3,24.3,0,0,1,6.7.78c1.78.52,2.66,1.26,2.66,2.21q0,2-2.86,3.25T360,170.94Q353,172,340.53,173.15Z"/><path class="cls-2" d="M292.56,264.8c1.82,0,4.34-1,7.54-2.92a85.85,85.85,0,0,0,10.4-7.61A104.92,104.92,0,0,0,321,244.13l1.56-1.69h1.3l-1.17,1.3a100,100,0,0,1-11.24,11,82.14,82.14,0,0,1-10.92,7.87q-5,2.93-8.13,2.92a6.21,6.21,0,0,1-3.38-1.1,4,4,0,0,1-1.69-3.58,12.46,12.46,0,0,1,2.6-7.08,58.59,58.59,0,0,1,6.5-7.61q3.9-3.9,7.8-7.54a82,82,0,0,0,6.5-6.69c1.74-2,2.6-3.79,2.6-5.27s-.95-2.34-2.86-2.34a11.48,11.48,0,0,0-3,.46c-1.12.3-2.38.71-3.77,1.23l1-1.43c1.13-.43,2.23-.82,3.32-1.17a11.41,11.41,0,0,1,3.44-.52,9.65,9.65,0,0,1,5.27,1.3,4.73,4.73,0,0,1,2,4.29,11.6,11.6,0,0,1-2.92,7.28,47.59,47.59,0,0,1-7.28,7.15q-4.37,3.51-8.71,6.83a58.32,58.32,0,0,0-7.28,6.43c-1.95,2.08-2.93,4.08-2.93,6C289.7,263.94,290.66,264.8,292.56,264.8Zm-3.38-22.36h-1.3l1.56-1.69q12-13.12,19.31-21.58t9.68-11.83H324A128.71,128.71,0,0,0,311.09,219q-7.74,7.72-20.22,21.64Z"/><path class="cls-2" d="M356,243.74A60.18,60.18,0,0,1,341.18,256a30.43,30.43,0,0,1-15.08,4.35,38.11,38.11,0,0,0-9.36,1q-3.76,1-3.77,2.53c0,.61.52.91,1.56.91a20.16,20.16,0,0,0,10.27-2.86,33.44,33.44,0,0,0,9-7.67,38.47,38.47,0,0,0,6.37-10.79,33.24,33.24,0,0,0,2.34-12.22,33.39,33.39,0,0,1,.59-6.63,19.05,19.05,0,0,1,2.47-6,43.35,43.35,0,0,1,5.91-7.28l7.15-4q-4.68,3.51-7.21,5.79a18.63,18.63,0,0,0-3.58,4,7.39,7.39,0,0,0-1,3.83,32.06,32.06,0,0,0,.78,5.92,38.61,38.61,0,0,1,.78,7.73,23.8,23.8,0,0,1-2.92,11.25,36.24,36.24,0,0,1-7.8,9.94,41.21,41.21,0,0,1-10.79,7.09,29.13,29.13,0,0,1-12,2.66c-1.82,0-2.73-.56-2.73-1.69s1.35-2.25,4-3.12a32.73,32.73,0,0,1,9.88-1.3q14.43,0,28.34-15.34l1.56-1.69h1.3Zm-32.11-1.3h-1.3l1.56-1.69q12-13.12,19.31-21.58t9.68-11.83h5.59A125.92,125.92,0,0,0,345.86,219q-7.67,7.72-20.28,21.64Z"/></g></g></g></g></svg>