<svg xmlns="http://www.w3.org/2000/svg" viewBox="0 0 214.8 30.44"><defs><style>.cls-1{isolation:isolate;}.cls-2{fill:#a6882e;}</style></defs><g id="Layer_2" data-name="Layer 2"><g id="Layer_1-2" data-name="Layer 1"><g id="Joshua_Rachelle" data-name="Joshua Rachelle" class="cls-1"><g class="cls-1"><path class="cls-2" d="M5.32,30.44a5.79,5.79,0,0,1-3.8-1.24A4.3,4.3,0,0,1,0,25.68,7.19,7.19,0,0,1,1.06,22.1,12.73,12.73,0,0,1,4.8,18.32a28.93,28.93,0,0,1,8.92-4.06,69.87,69.87,0,0,1,10.08-1.9c1-1.44,2-2.81,3-4.1a37.72,37.72,0,0,1,3-3.42,10.59,10.59,0,0,1,2.92-2.16l-.84-.16A16.54,16.54,0,0,0,30,2.26c-.76-.07-1.58-.1-2.46-.1a17.74,17.74,0,0,0-3.2.3,10.34,10.34,0,0,0-3.1,1.1,7.1,7.1,0,0,0-2.5,2.36,3.43,3.43,0,0,0-.46,1A3.87,3.87,0,0,0,18.12,8a2,2,0,0,0,.4,1.26,1.54,1.54,0,0,0,1.32.54l.34,0a1.86,1.86,0,0,0,.34-.06s0,0,0,0a.4.4,0,0,1-.1.18.68.68,0,0,1-.38.22,1.8,1.8,0,0,1-.32.06l-.32,0a2.34,2.34,0,0,1-2-.84,3.17,3.17,0,0,1-.6-1.88,4.3,4.3,0,0,1,.84-2.72,6.83,6.83,0,0,1,3.64-2.62,16.71,16.71,0,0,1,4.6-.62c1.33,0,2.67.07,4,.2s2.63.2,3.86.2a12.09,12.09,0,0,0,2.52-.26A2.47,2.47,0,0,0,38,.72a.77.77,0,0,1,.28.68,1.6,1.6,0,0,1-.52,1.08A2.53,2.53,0,0,1,35.84,3a16.24,16.24,0,0,1-2.4-.24,13.26,13.26,0,0,0-3.5,3.54c-1.27,1.72-2.59,3.65-4,5.78L27.68,12a.07.07,0,0,1,.08.08.4.4,0,0,1-.1.18.41.41,0,0,0-.1.22l-1.92.2c-1.31,2-2.63,4.06-4,6.1a46.72,46.72,0,0,1-3.9,5.18A23.47,23.47,0,0,1,14.36,27,20.1,20.1,0,0,1,10,29.46,12.1,12.1,0,0,1,5.32,30.44ZM5,29a10.23,10.23,0,0,0,5.74-1.72,29.2,29.2,0,0,0,4.94-4.12,37.16,37.16,0,0,0,3.82-4.7l3.9-5.58c-2,.29-4.07.69-6.22,1.18A47.39,47.39,0,0,0,11,16a24.68,24.68,0,0,0-5.26,2.68,13.89,13.89,0,0,0-3.8,3.64A6.18,6.18,0,0,0,.76,25.52a3.18,3.18,0,0,0,1.16,2.54A4.63,4.63,0,0,0,5,29Z"/><path class="cls-2" d="M27.88,24.48a2.08,2.08,0,0,1-1.66-.58,2.17,2.17,0,0,1-.5-1.46,6.79,6.79,0,0,1,.66-2.64,16.67,16.67,0,0,1,1.78-3.08,21,21,0,0,1,2.52-2.9,14.53,14.53,0,0,1,2.86-2.16,5.7,5.7,0,0,1,2.82-.82,1.77,1.77,0,0,1,1.44.52,2.06,2.06,0,0,1,.44,1.36,7.07,7.07,0,0,1-.64,2.66,16.89,16.89,0,0,1-1.74,3.12,22.93,22.93,0,0,1-2.44,2.94,13.22,13.22,0,0,1-2.78,2.2A5.49,5.49,0,0,1,27.88,24.48Zm.48-.76a3.7,3.7,0,0,0,2-.86,16.07,16.07,0,0,0,2.42-2.22,27.12,27.12,0,0,0,2.3-2.9,21.63,21.63,0,0,0,1.72-2.92,5.56,5.56,0,0,0,.66-2.26c0-.64-.31-1-.92-1a3.37,3.37,0,0,0-1.9.9,17.94,17.94,0,0,0-2.36,2.3,33.83,33.83,0,0,0-2.3,3,21.15,21.15,0,0,0-1.74,3,5.64,5.64,0,0,0-.66,2.2C27.6,23.45,27.85,23.72,28.36,23.72Z"/><path class="cls-2" d="M40,24.56a7.06,7.06,0,0,1-1.54-.16,3.47,3.47,0,0,1-1.3-.56,2.59,2.59,0,0,1-.74-.88,3,3,0,0,1-.3-1.44,2.34,2.34,0,0,1,.5-1.6,1.44,1.44,0,0,1,1.06-.56c.29-.37.69-.9,1.2-1.58l1.7-2.26c.63-.83,1.27-1.66,1.94-2.5s1.29-1.59,1.88-2.26c.37-.37.77-.77,1.18-1.2a6.54,6.54,0,0,1,1.4-1.1A3.18,3.18,0,0,1,48.6,8a1.31,1.31,0,0,1,1,.32,1.07,1.07,0,0,1,.3.76.83.83,0,0,1-.12.44,3,3,0,0,0-1.24.14,7.88,7.88,0,0,0-1.76.78A15.72,15.72,0,0,0,44.64,12c0,.32-.06.81-.1,1.46s-.09,1.39-.14,2.2-.14,1.63-.26,2.44a14.42,14.42,0,0,1-.46,2.14A7.41,7.41,0,0,1,43,21.7a5.66,5.66,0,0,1-1.18,1.44A4,4,0,0,1,40,24a5.81,5.81,0,0,0,2.4-.44,6.41,6.41,0,0,0,1.62-1l1.06-.94c.21-.21.51-.52.88-.92s.64-.69.8-.88c.11,0,.16.08.16.24a.85.85,0,0,1-.16.56A22.9,22.9,0,0,1,44,23.28a5.59,5.59,0,0,1-2,1A8.39,8.39,0,0,1,40,24.56Zm-1.4-.76a1.83,1.83,0,0,0,1.26-.54A6.75,6.75,0,0,0,40.88,22a9.73,9.73,0,0,0,.76-1.38,23.55,23.55,0,0,0,.92-2.44c.32-1,.63-2,.92-3s.53-1.91.72-2.66c-.75.72-1.49,1.51-2.22,2.36s-1.41,1.67-2,2.44L38.44,19.2a5.38,5.38,0,0,0-.8,1.44,4.12,4.12,0,0,0-.28,1.44,2.21,2.21,0,0,0,.32,1.24A1,1,0,0,0,38.56,23.8Z"/><path class="cls-2" d="M52.84,24.44a1.32,1.32,0,0,1-1-.36,1.36,1.36,0,0,1-.32-.92,5.62,5.62,0,0,1,.24-1.36,13.76,13.76,0,0,1,1.52-2.94A30.24,30.24,0,0,1,55.42,16c.79-.92,1.54-1.76,2.26-2.52S59,12.08,59.4,11.6a3.21,3.21,0,0,0-1.3.32,13.14,13.14,0,0,0-1.42.76,30.67,30.67,0,0,0-3.46,2.84A46.33,46.33,0,0,0,50,18.88C49,20,48.13,21.08,47.44,22a10.3,10.3,0,0,0-1.32,2.24c-.43,0-.64-.27-.64-.8a4.81,4.81,0,0,1,.4-1.7,15.54,15.54,0,0,1,1-2.06,59.23,59.23,0,0,1,3.34-4.94q2-2.65,4.1-5A29.58,29.58,0,0,1,58.4,6,13.71,13.71,0,0,1,63,3.68a5.2,5.2,0,0,1,.84-.2,6.43,6.43,0,0,1,1-.08,4.23,4.23,0,0,1,1.64.28,3.9,3.9,0,0,1,.64.42,1.34,1.34,0,0,1,.44.74,3,3,0,0,0-1-.54,4.48,4.48,0,0,0-1.36-.18A6.52,6.52,0,0,0,62,5,17.78,17.78,0,0,0,58.94,7.2a26.76,26.76,0,0,0-2.56,2.54c-.73.84-1.3,1.5-1.7,2q-1.56,1.92-2.74,3.58t-2,2.82c1.07-1.17,2.23-2.35,3.5-3.54A25.41,25.41,0,0,1,57,11.76a6.4,6.4,0,0,1,1.08-.6,2.9,2.9,0,0,1,1.16-.24q1.08,0,1.08.84a2.51,2.51,0,0,1-.76,1.52q-1.4,1.61-2.84,3.54a29,29,0,0,0-2.44,3.86c-.11.19-.29.55-.54,1.1a3.52,3.52,0,0,0-.38,1.38c0,.32.15.48.44.48A3.72,3.72,0,0,0,56,22.46a29,29,0,0,0,2.56-2.62c.11,0,.16.08.16.24a.85.85,0,0,1-.16.56l-1.42,1.5a10.8,10.8,0,0,1-1.94,1.6A4.23,4.23,0,0,1,52.84,24.44Z"/><path class="cls-2" d="M59.44,24.28a1.79,1.79,0,0,1-1.36-.44,1.59,1.59,0,0,1-.4-1.12,4.43,4.43,0,0,1,.3-1.5,11.74,11.74,0,0,1,.74-1.62A30.78,30.78,0,0,1,60.46,17c.65-.87,1.32-1.67,2-2.42s1.29-1.39,1.82-1.92a5.35,5.35,0,0,1,1.56-1.12,11.57,11.57,0,0,1,2-.64c-.59.67-1.38,1.61-2.38,2.84s-2,2.53-3,3.92c-.11.13-.3.41-.58.84s-.58.9-.9,1.42a15.3,15.3,0,0,0-.82,1.52,3,3,0,0,0-.34,1.18c0,.29.16.43.48.4a2.74,2.74,0,0,0,1.36-.76,22.36,22.36,0,0,0,1.8-1.76c.64-.69,1.25-1.38,1.82-2.06l1.42-1.7,1.08-1.3L69,13.84c.45-.56.87-1.05,1.24-1.48a3.83,3.83,0,0,1,1.36-1,6.63,6.63,0,0,1,1.8-.42q-.31.4-1.26,1.56c-.63.77-1.33,1.69-2.1,2.74s-1.51,2.15-2.2,3.28a18.48,18.48,0,0,0-1.6,3.22A3,3,0,0,0,66,22.84a.62.62,0,0,0,.2.54.77.77,0,0,0,.44.14A2.32,2.32,0,0,0,67.9,23a9.45,9.45,0,0,0,1.36-1.14c.44-.44.83-.86,1.18-1.26s.57-.67.68-.8.16.08.16.24a.85.85,0,0,1-.16.56c-.4.48-.89,1-1.46,1.56a11.63,11.63,0,0,1-1.8,1.46,3.41,3.41,0,0,1-1.86.62,1.74,1.74,0,0,1-1.4-.48,1.79,1.79,0,0,1-.4-1.2,4.62,4.62,0,0,1,.28-1.5,9.33,9.33,0,0,1,.68-1.54Q64.68,20,64,20.82c-.44.52-.93,1.05-1.46,1.58A11.15,11.15,0,0,1,61,23.74,2.73,2.73,0,0,1,59.44,24.28Z"/><path class="cls-2" d="M71.84,24.32c-1,0-1.48-.56-1.48-1.68a6.21,6.21,0,0,1,.56-2.3,13,13,0,0,1,1.68-2.82,24.1,24.1,0,0,1,2-2.14A24.79,24.79,0,0,1,77.1,13.2a15.43,15.43,0,0,1,2.82-1.7,6.69,6.69,0,0,1,2.8-.66,1.45,1.45,0,0,1,.84.18.92.92,0,0,1,.32.38c.05.11.06.19,0,.24a.1.1,0,0,1-.14,0,1.75,1.75,0,0,0-.64-.08A6.33,6.33,0,0,0,79.7,13a21.64,21.64,0,0,0-3.9,3.58,20,20,0,0,0-2.24,3A10.86,10.86,0,0,0,72.4,22a2.51,2.51,0,0,0-.08.56c0,.37.15.56.44.56a1.78,1.78,0,0,0,.76-.26,7.76,7.76,0,0,0,1.24-.9,22.17,22.17,0,0,0,2.38-2.44c.79-.93,1.57-1.89,2.34-2.86s1.53-1.87,2.26-2.7A10.24,10.24,0,0,1,83.84,12a7.3,7.3,0,0,1,1.78-1c.33-.08.61-.13.82-.16-.13.16-.43.53-.88,1.12L84.12,13.9c-.51.65-.92,1.19-1.24,1.62l-1.54,2.24c-.55.8-1,1.55-1.48,2.26a9.73,9.73,0,0,0-.9,1.74,4.17,4.17,0,0,0-.2,1c0,.43.17.64.52.64a1.74,1.74,0,0,0,.86-.3,11,11,0,0,0,1-.7,16,16,0,0,0,1.28-1.18c.4-.41.81-.87,1.24-1.38.11,0,.16.08.16.24a.85.85,0,0,1-.16.56q-.53.6-1.26,1.32A16.51,16.51,0,0,1,81,23.24a5.57,5.57,0,0,1-1.2.76,3.12,3.12,0,0,1-1.32.32,1.59,1.59,0,0,1-1.28-.44,1.71,1.71,0,0,1-.36-1.12A4.92,4.92,0,0,1,77.16,21a17.09,17.09,0,0,1,.8-1.78c-.35.43-.79.94-1.32,1.54s-1,1.1-1.44,1.5c-.59.53-1.15,1-1.68,1.42A2.71,2.71,0,0,1,71.84,24.32Z"/><path class="cls-2" d="M96.76,23.56a4.58,4.58,0,0,1-3.06-.9,3.38,3.38,0,0,1-1-3,4,4,0,0,1,.08-.48,6.1,6.1,0,0,1,1.18-2.62,10.86,10.86,0,0,1,2.28-2.26,13.69,13.69,0,0,1,2.84-1.64A8.45,8.45,0,0,1,102,12a3,3,0,0,1-.06-.5c0-.2,0-.43,0-.7a4.94,4.94,0,0,1,.72-2.46A8.91,8.91,0,0,1,104.54,6a10.31,10.31,0,0,1,2.74-1.72,7.74,7.74,0,0,1,3.12-.66h.38a1.48,1.48,0,0,1,.38,0,4.46,4.46,0,0,1,1.84.62,1.55,1.55,0,0,1,.8,1.38,2.45,2.45,0,0,1-.08.52,5.22,5.22,0,0,1-1.58,2.32A7.45,7.45,0,0,1,109.36,10l-.28.06-.2,0c-.11,0-.16,0-.16-.08s.17-.31.52-.44A7.56,7.56,0,0,0,111.44,8,4.55,4.55,0,0,0,112.64,6a1.45,1.45,0,0,0-.26-1c-.23-.32-.76-.48-1.58-.48a5.36,5.36,0,0,0-2.36.66A12.22,12.22,0,0,0,105.72,7a8.27,8.27,0,0,0-1.52,1.88,16.34,16.34,0,0,0-1.2,2.36.41.41,0,0,1,0,.12.32.32,0,0,0,0,.16.73.73,0,0,0-.08.36,3.3,3.3,0,0,1,1.92.44c.29.16.41.27.36.32-.08.24-.39.36-.92.36a3.46,3.46,0,0,1-1.58-.28,1,1,0,0,1-.62-.68,7.37,7.37,0,0,0-3.22,1.48,11.39,11.39,0,0,0-2.66,2.84,8.48,8.48,0,0,0-1.36,3.32,5.7,5.7,0,0,0-.12,1.12,2.24,2.24,0,0,0,.54,1.56,2.6,2.6,0,0,0,2,.6,6.19,6.19,0,0,0,2.54-.58,12.12,12.12,0,0,0,2.5-1.52,13.17,13.17,0,0,0,2.12-2.1,9.2,9.2,0,0,0,1.36-2.28h-.12l-1.28-.32-2.4-.44c-.54.24-1,.43-1.34.56a3.15,3.15,0,0,1-1.06.2c-.48,0-.72-.11-.72-.32s.16-.42.5-.62a2.32,2.32,0,0,1,1.22-.3H101a2.14,2.14,0,0,1,.54.08l.8-.6A9.25,9.25,0,0,1,104,14a5.25,5.25,0,0,1,1.8-.32,2.28,2.28,0,0,1,1.42.44,1.3,1.3,0,0,1,.46,1,2.71,2.71,0,0,1-.28,1.2h-.12a2,2,0,0,0,.44,0h.48a9.44,9.44,0,0,0,2.66-.4,6.21,6.21,0,0,0,2.34-1.22,2.6,2.6,0,0,0,1-2.06,2.33,2.33,0,0,0-.14-.72.79.79,0,0,0-.5-.52,1.61,1.61,0,0,1,.48-.08,1.66,1.66,0,0,1,1.18.48,1.57,1.57,0,0,1,.5,1.16,3,3,0,0,1-1,2.32,5.76,5.76,0,0,1-2.32,1.26,9.29,9.29,0,0,1-2.46.38l-1.32,0a11.67,11.67,0,0,1-1.48-.14l-.28.44a12,12,0,0,1-1.7,2.06,19.29,19.29,0,0,1-2.5,2.08,15.18,15.18,0,0,1-2.92,1.6A8,8,0,0,1,96.76,23.56Zm9-7.48h.08l.16-.56a1.32,1.32,0,0,0,0-.32,1,1,0,0,0-.2-.62.89.89,0,0,0-.72-.26h-.24a.67.67,0,0,0-.24,0,3.32,3.32,0,0,0-.64.18,8.15,8.15,0,0,0-.76.34l-.44.28-.22.12a.83.83,0,0,0-.22.16h-.08l.92.2q.36,0,.72.12l.72.12Z"/><path class="cls-2" d="M118.44,25.76a5.28,5.28,0,0,1-1.52-.24,3,3,0,0,1-1.38-.86A2.32,2.32,0,0,1,115,23a2.42,2.42,0,0,1,.38-1.22,1.22,1.22,0,0,1,1-.7.93.93,0,0,0-.22.52,3.91,3.91,0,0,0-.06.64,1.57,1.57,0,0,0,.6,1.16,2.66,2.66,0,0,0,1.76.48,6.7,6.7,0,0,0,3.18-.9,18.82,18.82,0,0,0,3.36-2.4,37.43,37.43,0,0,0,3.32-3.34q1.62-1.84,3-3.72t3-4A52.72,52.72,0,0,1,138,5.24,23.45,23.45,0,0,1,142,1.8a9.09,9.09,0,0,0-2.36-.9,14,14,0,0,0-3.32-.34,16.82,16.82,0,0,0-5.24.8,18.21,18.21,0,0,0-4.44,2.12,18.52,18.52,0,0,0-3.46,2.9A13.23,13.23,0,0,0,121,9.58a6.93,6.93,0,0,0-.78,3,3.16,3.16,0,0,0,.82,2.22,3.93,3.93,0,0,0,2.66,1.06q.24,0,.24.12t-.36.12A5.35,5.35,0,0,1,120,14.7a4,4,0,0,1-1.14-2.9A7.6,7.6,0,0,1,120.06,8a14.05,14.05,0,0,1,3.42-3.84,18.2,18.2,0,0,1,5.46-3A21.61,21.61,0,0,1,136.2,0,18.1,18.1,0,0,1,140,.4a13.13,13.13,0,0,1,2.8.92A8.28,8.28,0,0,1,147.12,0a4.16,4.16,0,0,1,2,.54,2.1,2.1,0,0,1,1,2,2.7,2.7,0,0,0-1.18-1.22,4.06,4.06,0,0,0-2.18-.58,6.09,6.09,0,0,0-1.68.24,8,8,0,0,0-1.64.68,5.84,5.84,0,0,1,2,2,5,5,0,0,1,.64,2.4A5.42,5.42,0,0,1,145,9.32a8.63,8.63,0,0,1-7,3.52,1.75,1.75,0,0,1,0,.32v.36a15.73,15.73,0,0,1-.36,3c-.06.35-.14.89-.26,1.64a14.41,14.41,0,0,0-.18,2.28,6.79,6.79,0,0,0,.38,2.4,1.44,1.44,0,0,0,1.46,1,3.55,3.55,0,0,0,2-.74,12.92,12.92,0,0,0,1.94-1.7c.6-.64,1.07-1.16,1.42-1.56.1,0,.16.08.16.24a.91.91,0,0,1-.16.56,16.88,16.88,0,0,1-3.4,3.18,6.16,6.16,0,0,1-3.44,1,2.59,2.59,0,0,1-1.68-.62,3,3,0,0,1-.76-2.42,7.87,7.87,0,0,1,.36-2.22c.24-.81.51-1.63.82-2.46s.58-1.58.82-2.26a5.19,5.19,0,0,0,.36-1.58.66.66,0,0,0-.08-.4,1.35,1.35,0,0,1-.78-.34.7.7,0,0,1-.26-.5c0-.21.13-.32.4-.32a1.07,1.07,0,0,1,1.12.88,5.61,5.61,0,0,0,2.36-.82,8.94,8.94,0,0,0,2.06-1.72,9.15,9.15,0,0,0,1.44-2.18,5.29,5.29,0,0,0,.54-2.24,4.23,4.23,0,0,0-.44-1.86,4.79,4.79,0,0,0-1.36-1.62A17.46,17.46,0,0,0,139.5,4.7,43.56,43.56,0,0,0,136.62,8Q135.24,9.72,134,11.4l-2.16,3L129,18.36A36.62,36.62,0,0,1,125.88,22a15.42,15.42,0,0,1-3.48,2.7A8.06,8.06,0,0,1,118.44,25.76Z"/><path class="cls-2" d="M145.2,24.32c-1,0-1.48-.56-1.48-1.68a6,6,0,0,1,.56-2.3A13,13,0,0,1,146,17.52a22.66,22.66,0,0,1,2-2.14,24.79,24.79,0,0,1,2.54-2.18,15.43,15.43,0,0,1,2.82-1.7,6.69,6.69,0,0,1,2.8-.66,1.45,1.45,0,0,1,.84.18,1,1,0,0,1,.32.38c0,.11.06.19,0,.24a.1.1,0,0,1-.14,0,1.75,1.75,0,0,0-.64-.08A6.33,6.33,0,0,0,153.06,13a21.64,21.64,0,0,0-3.9,3.58,19.33,19.33,0,0,0-2.24,3A10.43,10.43,0,0,0,145.76,22a2,2,0,0,0-.08.56c0,.37.14.56.44.56a1.83,1.83,0,0,0,.76-.26,7.76,7.76,0,0,0,1.24-.9,22.17,22.17,0,0,0,2.38-2.44c.78-.93,1.56-1.89,2.34-2.86s1.52-1.87,2.26-2.7A10.24,10.24,0,0,1,157.2,12a7.12,7.12,0,0,1,1.78-1,8.22,8.22,0,0,1,.82-.16c-.14.16-.43.53-.88,1.12l-1.44,1.86c-.51.65-.92,1.19-1.24,1.62-.48.69-1,1.44-1.54,2.24s-1,1.55-1.48,2.26a9.73,9.73,0,0,0-.9,1.74,3.72,3.72,0,0,0-.2,1c0,.43.17.64.52.64a1.77,1.77,0,0,0,.86-.3,11,11,0,0,0,1-.7,16,16,0,0,0,1.28-1.18c.4-.41.81-.87,1.24-1.38.1,0,.16.08.16.24a.91.91,0,0,1-.16.56q-.53.6-1.26,1.32a18.07,18.07,0,0,1-1.46,1.28,5.57,5.57,0,0,1-1.2.76,3.19,3.19,0,0,1-1.32.32,1.58,1.58,0,0,1-1.28-.44,1.71,1.71,0,0,1-.36-1.12,4.92,4.92,0,0,1,.36-1.74,15.23,15.23,0,0,1,.8-1.78c-.35.43-.79.94-1.32,1.54s-1,1.1-1.44,1.5c-.59.53-1.15,1-1.68,1.42A2.75,2.75,0,0,1,145.2,24.32Z"/><path class="cls-2" d="M160,24.56a5.7,5.7,0,0,1-1.56-.22,2.47,2.47,0,0,1-1.32-.86,2.91,2.91,0,0,1-.52-1.88,6.49,6.49,0,0,1,.72-2.84,12.79,12.79,0,0,1,1.94-2.88A19.18,19.18,0,0,1,162,13.36a14.09,14.09,0,0,1,2.9-1.78,6.58,6.58,0,0,1,2.7-.66,1.3,1.3,0,0,1,1.06.38,1.4,1.4,0,0,1,.3.9,2.2,2.2,0,0,1-.24,1,5.29,5.29,0,0,1-1.26,1.7,2.92,2.92,0,0,1-2.06.86c-.3,0-.46-.11-.5-.32a.74.74,0,0,1,0-.48,8,8,0,0,0,1.52-.7,3.79,3.79,0,0,0,1.52-1.66,1,1,0,0,0,.12-.44q0-.6-.72-.6a4.31,4.31,0,0,0-2.38,1.14A21.62,21.62,0,0,0,161.72,16a17.44,17.44,0,0,0-2.06,2.9,6,6,0,0,0-.82,3,2.61,2.61,0,0,0,.36,1.46,1.47,1.47,0,0,0,1.32.54,4.39,4.39,0,0,0,2.26-.6,8.51,8.51,0,0,0,1.9-1.54q.87-.94,1.68-1.86c.1,0,.16.08.16.24a.91.91,0,0,1-.16.56c-.54.61-1.11,1.23-1.72,1.84a8.65,8.65,0,0,1-2,1.5A5.46,5.46,0,0,1,160,24.56Z"/><path class="cls-2" d="M172.4,24.44a1.32,1.32,0,0,1-1-.36,1.31,1.31,0,0,1-.32-.92,5.62,5.62,0,0,1,.24-1.36,13.32,13.32,0,0,1,1.52-2.94A28.65,28.65,0,0,1,175,16c.78-.92,1.54-1.76,2.26-2.52s1.29-1.38,1.72-1.86a3.18,3.18,0,0,0-1.3.32,13.14,13.14,0,0,0-1.42.76,30.67,30.67,0,0,0-3.46,2.84,46.33,46.33,0,0,0-3.24,3.36c-1,1.15-1.85,2.2-2.54,3.16a9.53,9.53,0,0,0-1.32,2.24c-.43,0-.64-.27-.64-.8a4.81,4.81,0,0,1,.4-1.7,14.39,14.39,0,0,1,1-2.06,56.87,56.87,0,0,1,3.34-4.94,63.94,63.94,0,0,1,4.1-5A29.58,29.58,0,0,1,178,6a13.61,13.61,0,0,1,4.6-2.36,5.2,5.2,0,0,1,.84-.2,6.43,6.43,0,0,1,1-.08,4.26,4.26,0,0,1,1.64.28,4.37,4.37,0,0,1,.64.42,1.34,1.34,0,0,1,.44.74,3.13,3.13,0,0,0-1-.54,4.53,4.53,0,0,0-1.36-.18,6.52,6.52,0,0,0-3.18.9A17.78,17.78,0,0,0,178.5,7.2a25.65,25.65,0,0,0-2.56,2.54c-.74.84-1.3,1.5-1.7,2-1,1.28-2,2.47-2.74,3.58s-1.45,2.05-2,2.82q1.59-1.76,3.5-3.54a24.83,24.83,0,0,1,3.5-2.82,5.71,5.71,0,0,1,1.08-.6,2.9,2.9,0,0,1,1.16-.24q1.08,0,1.08.84a2.57,2.57,0,0,1-.76,1.52c-.94,1.07-1.88,2.25-2.84,3.54a28,28,0,0,0-2.44,3.86c-.11.19-.29.55-.54,1.1a3.35,3.35,0,0,0-.38,1.38c0,.32.14.48.44.48a3.72,3.72,0,0,0,2.24-1.18,29,29,0,0,0,2.56-2.62c.1,0,.16.08.16.24a.91.91,0,0,1-.16.56l-1.42,1.5a11.17,11.17,0,0,1-1.94,1.6A4.23,4.23,0,0,1,172.4,24.44Z"/><path class="cls-2" d="M181.16,24.56a3.48,3.48,0,0,1-2.6-.8,3,3,0,0,1-.76-2.16,6.06,6.06,0,0,1,.74-2.78A14.06,14.06,0,0,1,180.4,16a16.59,16.59,0,0,1,1.68-1.68,19.25,19.25,0,0,1,2.16-1.66,14.35,14.35,0,0,1,2.3-1.28,5.18,5.18,0,0,1,2-.5,1.77,1.77,0,0,1,.88.22,1,1,0,0,1,.4.94,2.6,2.6,0,0,1-1,1.9,14.68,14.68,0,0,1-2.16,1.66,17.06,17.06,0,0,1-2.84,1.48c-1,.4-1.84.71-2.56.92a10.15,10.15,0,0,0-1,2,5.78,5.78,0,0,0-.36,2,1.67,1.67,0,0,0,.5,1.42,1.89,1.89,0,0,0,1.18.38,4.48,4.48,0,0,0,2.26-.58,8.59,8.59,0,0,0,1.9-1.5c.58-.61,1.14-1.23,1.68-1.84.1,0,.16.08.16.24a.91.91,0,0,1-.16.56c-.54.61-1.12,1.23-1.74,1.84a9,9,0,0,1-2.06,1.5A5.46,5.46,0,0,1,181.16,24.56Zm.64-7.08c.69-.24,1.51-.57,2.46-1a15.44,15.44,0,0,0,2.5-1.4q.24-.16.84-.66a9.11,9.11,0,0,0,1.12-1.12,1.85,1.85,0,0,0,.52-1.1.57.57,0,0,0-.64-.64,2.77,2.77,0,0,0-1.54.6c-.58.4-1,.75-1.38,1-.64.59-1.31,1.24-2,2A16.73,16.73,0,0,0,181.8,17.48Z"/><path class="cls-2" d="M188.64,24.4c-1.34,0-2-.61-2-1.84a4.22,4.22,0,0,1,.28-1.4A12.83,12.83,0,0,1,188,19a38,38,0,0,1,2.94-4.24c1.26-1.63,2.62-3.21,4.06-4.76a33.63,33.63,0,0,1,4.1-3.9,13,13,0,0,1,4.62-2.46,5.2,5.2,0,0,1,.84-.2,6.43,6.43,0,0,1,1-.08,4.26,4.26,0,0,1,1.64.28,4.37,4.37,0,0,1,.64.42,1.34,1.34,0,0,1,.44.74,3.13,3.13,0,0,0-1-.54,4.53,4.53,0,0,0-1.36-.18,6.79,6.79,0,0,0-4,1.36A22.56,22.56,0,0,0,198.06,9q-1.91,2.14-4,4.54a26.41,26.41,0,0,0-1.76,2.28c-.64.91-1.25,1.81-1.82,2.72s-1,1.68-1.38,2.32a3.3,3.3,0,0,0-.42.94,2.91,2.91,0,0,0-.14.82q0,1,.72,1a2.93,2.93,0,0,0,1.7-.72,17.79,17.79,0,0,0,1.8-1.6c.57-.59,1-1,1.3-1.4.1,0,.16.08.16.24a.91.91,0,0,1-.16.56,18,18,0,0,1-2.94,2.8A4.4,4.4,0,0,1,188.64,24.4Z"/><path class="cls-2" d="M195.2,24.4c-1.34,0-2-.61-2-1.84a4.22,4.22,0,0,1,.28-1.4,12.83,12.83,0,0,1,1-2.12,38,38,0,0,1,2.94-4.24c1.26-1.63,2.62-3.21,4.06-4.76a33.63,33.63,0,0,1,4.1-3.9,13,13,0,0,1,4.62-2.46,5.2,5.2,0,0,1,.84-.2,6.43,6.43,0,0,1,1-.08,4.26,4.26,0,0,1,1.64.28,4.37,4.37,0,0,1,.64.42,1.34,1.34,0,0,1,.44.74,3.13,3.13,0,0,0-1-.54,4.53,4.53,0,0,0-1.36-.18,6.79,6.79,0,0,0-4,1.36A22.56,22.56,0,0,0,204.62,9q-1.91,2.14-4,4.54a26.41,26.41,0,0,0-1.76,2.28c-.64.91-1.25,1.81-1.82,2.72s-1,1.68-1.38,2.32a3.3,3.3,0,0,0-.42.94,2.91,2.91,0,0,0-.14.82c0,.64.24,1,.71,1a2.93,2.93,0,0,0,1.71-.72,16.68,16.68,0,0,0,1.79-1.6c.58-.59,1-1,1.31-1.4.1,0,.16.08.16.24a.91.91,0,0,1-.16.56,18,18,0,0,1-2.94,2.8A4.4,4.4,0,0,1,195.2,24.4Z"/><path class="cls-2" d="M203.67,24.56a3.47,3.47,0,0,1-2.59-.8,3,3,0,0,1-.76-2.16,6.17,6.17,0,0,1,.73-2.78A14.57,14.57,0,0,1,202.92,16a17.5,17.5,0,0,1,1.67-1.68,21.26,21.26,0,0,1,2.16-1.66,14.79,14.79,0,0,1,2.3-1.28,5.26,5.26,0,0,1,2-.5,1.73,1.73,0,0,1,.87.22,1,1,0,0,1,.4.94,2.6,2.6,0,0,1-1,1.9,15.12,15.12,0,0,1-2.15,1.66,16.77,16.77,0,0,1-2.85,1.48,27,27,0,0,1-2.56.92,9.55,9.55,0,0,0-1,2,5.56,5.56,0,0,0-.37,2,1.7,1.7,0,0,0,.5,1.42,1.94,1.94,0,0,0,1.18.38,4.45,4.45,0,0,0,2.26-.58,8.37,8.37,0,0,0,1.9-1.5c.59-.61,1.15-1.23,1.68-1.84.11,0,.16.08.16.24a.85.85,0,0,1-.16.56c-.53.61-1.11,1.23-1.74,1.84a8.7,8.7,0,0,1-2,1.5A5.5,5.5,0,0,1,203.67,24.56Zm.65-7.08c.69-.24,1.51-.57,2.45-1a15,15,0,0,0,2.5-1.4q.24-.16.84-.66a9.19,9.19,0,0,0,1.13-1.12,1.83,1.83,0,0,0,.51-1.1.56.56,0,0,0-.64-.64,2.77,2.77,0,0,0-1.53.6c-.58.4-1,.75-1.39,1-.64.59-1.3,1.24-2,2A17.42,17.42,0,0,0,204.32,17.48Z"/></g></g></g></g></svg>